<?xml version="1.0" encoding="UTF-8"?>
<!DOCTYPE svg PUBLIC "-//W3C//DTD SVG 1.1//EN" "http://www.w3.org/Graphics/SVG/1.1/DTD/svg11.dtd">
<!-- Creator: CorelDRAW 2021 (64-Bit) -->
<svg xmlns="http://www.w3.org/2000/svg" xml:space="preserve" width="297mm" height="420mm" version="1.1" style="shape-rendering:geometricPrecision; text-rendering:geometricPrecision; image-rendering:optimizeQuality; fill-rule:evenodd; clip-rule:evenodd"
viewBox="0 0 29700 42000"
 xmlns:xlink="http://www.w3.org/1999/xlink"
 xmlns:xodm="http://www.corel.com/coreldraw/odm/2003">
 <defs>
  <style type="text/css">
   <![CDATA[
    .fil0 {fill:black}
   ]]>
  </style>
 </defs>
 <g id="Capa_x0020_1">
  <metadata id="CorelCorpID_0Corel-Layer"/>
  <g id="_2112088302176">
   <path class="fil0" d="M14071.95 24130.38c0,714.82 0.08,1429.65 0,2144.47 -0.11,1003.81 -199.93,1918.73 338.6,1918.73l5981.94 0 0 -3837.47c1248.85,-290.95 902.93,-569.63 902.93,4966.14l-7674.94 0 -7.44 -4183.51c-9.83,-849.82 -56.04,-663.53 458.91,-1008.36zm-3160.27 4063.2l2257.34 0 0 1128.67 -2257.34 0 0 -1128.67zm3611.74 -902.93l5417.6 0 0 451.47 -5417.6 0 0 -451.47zm-4063.21 338.6l0 1693 -902.93 0c0,-5535.77 -345.92,-5257.09 902.93,-4966.14l0 2483.07c471.06,-39.2 442.58,-58.22 465.65,-550.15 34.99,-745.86 -176.61,-1724.85 141.93,-2017.96 380.27,-349.93 197.53,85.04 972.56,85.04 829.98,0 -251.64,-321.57 1128.67,0l0 3386.01 -2257.34 0c-36.71,-441.19 68.3,-342.82 -338.6,-451.47 -77.35,137.68 -112.87,120.72 -112.87,338.6zm4063.21 -3273.14c1365.93,0 221.38,-158.86 902.93,-158.86 681.55,0 -463,158.86 902.93,158.86 536.89,0 -50.58,-158.86 451.47,-158.86 681.55,0 -463,158.86 902.93,158.86 517.24,0 -49.91,-209.94 525.66,-158.85 515.67,45.78 -114.02,158.85 828.75,158.85 60.81,0 902.93,-494.44 902.93,225.74l0 2257.33 -5417.6 0 0 -2483.07zm6546.27 -902.93l902.93 0c-80.53,301.58 -148.76,416.6 -451.47,416.6 -452.25,0 -354.69,-232.43 -451.46,-416.6zm-1354.4 0l902.93 0c-80.53,301.58 -148.76,416.6 -451.47,416.6 -452.25,0 -354.69,-232.43 -451.46,-416.6zm-1354.41 0l902.94 0c-80.53,301.58 -148.76,416.6 -451.47,416.6 -452.25,0 -354.69,-232.43 -451.47,-416.6zm-1354.4 0l902.94 0c-80.53,301.58 -148.76,416.6 -451.47,416.6 -452.26,0 -354.69,-232.43 -451.47,-416.6zm-1354.4 0l902.94 0c-80.53,301.58 -148.77,416.6 -451.47,416.6 -452.26,0 -354.69,-232.43 -451.47,-416.6zm-1354.4 0l902.94 0c-80.53,301.58 -148.77,416.6 -451.47,416.6 -452.26,0 -354.69,-232.43 -451.47,-416.6zm-1354.4 0l902.94 0c-80.53,301.58 -148.77,416.6 -451.47,416.6 -452.26,0 -354.69,-232.43 -451.47,-416.6zm-1354.4 0l902.94 0c-80.53,301.58 -148.77,416.6 -451.47,416.6 -452.26,0 -354.69,-232.43 -451.47,-416.6zm-1354.4 0l902.93 0c-80.52,301.58 -148.76,416.6 -451.46,416.6 -452.26,0 -354.69,-232.43 -451.47,-416.6zm-1354.4 0l902.93 0c-80.52,301.58 -148.76,416.6 -451.46,416.6 -452.26,0 -354.7,-232.43 -451.47,-416.6zm677.2 -3160.27l11738.14 0 0 902.94c-524.18,43.62 -197.39,-121.05 -451.47,225.73 441.31,602.32 316.36,-211.26 671.11,570.43 74.22,163.54 305.87,843.08 344.69,1009.7l-12866.8 0c104.37,-448 331.4,-839.06 451.46,-1354.4l8465.01 0c1853.59,0 2423.37,265.9 2483.07,-451.46l-10835.21 0 0 -902.94zm-1128.67 3160.27c0,545.23 -48.94,733.76 677.2,902.93l0 4966.14c-896.06,0 -859.8,-66.79 -902.93,451.47l14446.94 0c-43.13,-518.26 -6.87,-451.47 -902.93,-451.47l0 -4966.14c1312.85,-305.86 436.32,-1737.56 120.75,-2716.68 -216.89,-672.92 119,-1797.98 -572.22,-1797.98l-11738.14 0c-691.22,0 -355.33,1125.06 -572.22,1797.98 -165.53,513.6 -556.45,1181.67 -556.45,1813.75z"/>
   <path class="fil0" d="M12491.82 18261.31c0,-1282.4 1242.81,-504.56 451.46,677.2 -315.97,-167.19 -451.46,-181.75 -451.46,-677.2zm-451.47 -225.73c0,1990.83 1580.13,1522.81 1580.13,564.33 0,-893.91 124.73,-1467.27 -902.93,-1467.27 -365.72,0 -677.2,490.47 -677.2,902.94z"/>
   <path class="fil0" d="M17345.08 17471.24c0,2259.33 -303.04,1918.74 1354.4,1918.74l0 -451.47 -790.06 0 0 -451.47 564.33 0 0 -451.46 -564.33 0 0 -451.47 790.06 0 0 -451.47c-962.72,0 -1354.4,-132.7 -1354.4,338.6z"/>
   <path class="fil0" d="M19038.09 17471.24c0,2259.33 -303.05,1918.74 1354.4,1918.74l0 -451.47 -790.07 0 0 -451.47 564.33 0 0 -451.46 -564.33 0 0 -451.47 790.07 0 0 -451.47c-962.73,0 -1354.4,-132.7 -1354.4,338.6z"/>
   <path class="fil0" d="M15652.08 17471.24c0,971.84 -76.58,1105.57 112.87,1918.74l338.6 0 112.87 -902.94c652.35,0 446.32,97.73 677.2,-338.6 -275.61,-154.83 -208.79,-112.86 -677.2,-112.86l0 -451.47c787.88,0 640.57,157.24 902.93,-338.6 -163.56,-91.89 -1467.27,-377.36 -1467.27,225.73z"/>
   <path class="fil0" d="M10347.35 17584.11l0 1354.4c597.99,400.44 149.5,451.47 1128.66,451.47 247.42,-369.48 295.31,-156.97 338.61,-677.2 -422.48,35.15 -479.3,186.41 -666.1,160.95 -516.92,-70.47 -439.93,-1289.62 -11.11,-1289.62 367.79,0 118.21,139.27 391.29,163.67 519.88,46.45 414.95,-615.14 -504.15,-615.14 -280.67,0 -424.44,282.21 -677.2,451.47z"/>
   <path class="fil0" d="M13959.08 17471.24c0,971.84 -76.58,1105.57 112.87,1918.74l338.6 0 112.87 -902.94 564.33 0 0 -451.46 -564.33 0 0 -451.47 790.06 0 0 -451.47c-962.72,0 -1354.4,-132.7 -1354.4,338.6z"/>
  </g>
 </g>
</svg>
