<?xml version="1.0" encoding="UTF-8"?>
<!DOCTYPE svg PUBLIC "-//W3C//DTD SVG 1.1//EN" "http://www.w3.org/Graphics/SVG/1.1/DTD/svg11.dtd">
<!-- Creator: CorelDRAW 2021 (64-Bit) -->
<svg xmlns="http://www.w3.org/2000/svg" xml:space="preserve" width="161.853mm" height="40.7782mm" version="1.1" style="shape-rendering:geometricPrecision; text-rendering:geometricPrecision; image-rendering:optimizeQuality; fill-rule:evenodd; clip-rule:evenodd"
viewBox="0 0 15599.09 3930.12"
 xmlns:xlink="http://www.w3.org/1999/xlink"
 xmlns:xodm="http://www.corel.com/coreldraw/odm/2003">
 <defs>
  <style type="text/css">
   <![CDATA[
    .fil0 {fill:#373435;fill-rule:nonzero}
   ]]>
  </style>
 </defs>
 <g id="Capa_x0020_1">
  <metadata id="CorelCorpID_0Corel-Layer"/>
  <polygon id="time-svgrepo-com.svg" class="fil0" points="15453.5,1726.74 15288.25,1884.12 15043.75,1619.38 15142.67,495.2 15599.09,73.63 "/>
  <polygon id="time-svgrepo-com.svg_0" class="fil0" points="15266.9,3850.87 14889.18,3429.87 14983.61,2305.13 15270.84,2041.52 15411.36,2203.95 "/>
  <polygon id="time-svgrepo-com.svg_1" class="fil0" points="12984.82,3930.12 13440.67,3508.56 14806.56,3508.56 15183.15,3930.12 "/>
  <polygon id="time-svgrepo-com.svg_2" class="fil0" points="11427.83,421.57 10061.95,421.57 9679.18,0 11876.94,0 11427.82,421.57 "/>
  <polygon id="time-svgrepo-com.svg_3" class="fil0" points="11618.95,3850.87 11241.78,3429.87 11337.33,2305.69 11624.56,2041.5 11765.08,2203.94 11618.94,3850.86 "/>
  <polygon id="time-svgrepo-com.svg_4" class="fil0" points="9336.86,3930.12 9792.15,3508.56 11158.02,3508.56 11534.62,3930.12 "/>
  <polygon id="time-svgrepo-com.svg_5" class="fil0" points="8087.89,1075.83 7666.33,1075.83 7705.67,654.27 8127.24,654.27 "/>
  <polygon id="time-svgrepo-com.svg_6" class="fil0" points="7840.57,3930.12 7419.02,3930.12 7457.8,3508.56 7879.37,3508.56 "/>
  <polygon id="time-svgrepo-com.svg_7" class="fil0" points="5811.44,421.57 4445.56,421.57 4062.78,0 6260.54,0 5811.43,421.57 "/>
  <polygon id="time-svgrepo-com.svg_8" class="fil0" points="6002.55,3851.43 5625.95,3429.87 5720.94,2305.69 6008.18,2041.5 6149.26,2203.94 6002.56,3851.43 "/>
  <polygon id="time-svgrepo-com.svg_9" class="fil0" points="3717.1,3930.12 4178.01,3508.56 5542.2,3508.56 5918.24,3930.12 "/>
  <polygon id="time-svgrepo-com.svg_10" class="fil0" points="3791.85,2204.5 3960.48,2042.07 4202.18,2305.68 4107.75,3430.41 3647.96,3851.42 "/>
  <polygon id="time-svgrepo-com.svg_11" class="fil0" points="2540.64,1726.74 2375.95,1884.12 2131.44,1619.38 2229.81,495.2 2686.22,73.63 "/>
  <polygon id="time-svgrepo-com.svg_12" class="fil0" points="2354.59,3850.87 1976.87,3429.87 2071.3,2305.13 2358.53,2041.52 2499.05,2203.95 "/>
  <polygon id="time-svgrepo-com.svg_13" class="fil0" points="69.7,3930.12 530.61,3508.56 1894.24,3508.56 2270.28,3930.12 "/>
  <polygon id="time-svgrepo-com.svg_14" class="fil0" points="143.89,2204.5 312.53,2042.07 554.22,2305.68 459.79,3430.41 -0,3851.98 143.89,2204.49 "/>
  <polygon id="time-svgrepo-com.svg_15" class="fil0" points="331.07,74.19 713.29,495.76 614.36,1619.94 330.51,1884.68 186.06,1727.3 331.08,74.19 "/>
  <polygon id="time-svgrepo-com.svg_16" class="fil0" points="2613.15,0 2162.92,421.57 797.05,421.57 414.82,0 "/>
  <polygon id="time-svgrepo-com.svg_17" class="fil0" points="5743.43,1756.53 5940.72,1965.06 5704.64,2173.59 4235.9,2173.59 4052.67,1965.06 4276.94,1756.53 "/>
  <polygon id="time-svgrepo-com.svg_18" class="fil0" points="3979.02,74.19 4360.69,495.76 4262.32,1619.94 3978.47,1884.68 3834.01,1727.3 3979.03,74.19 "/>
  <polygon id="time-svgrepo-com.svg_19" class="fil0" points="11360.39,1756.53 11557.67,1965.06 11321.03,2173.59 9854.55,2173.59 9669.06,1965.06 9893.33,1756.53 "/>
  <polygon id="time-svgrepo-com.svg_20" class="fil0" points="9595.42,74.19 9977.08,495.76 9882.09,1619.94 9595.43,1884.12 9449.29,1726.74 9595.43,74.19 "/>
  <polygon id="time-svgrepo-com.svg_21" class="fil0" points="13243.38,74.19 13625.04,495.76 13530.05,1619.94 13243.39,1884.12 13097.24,1726.74 13243.39,74.19 "/>
  <polygon id="time-svgrepo-com.svg_22" class="fil0" points="15010.03,1756.53 15206.77,1965.06 14970.69,2173.59 13502.5,2173.59 13316.45,1965.06 13541.28,1756.53 "/>
  <polygon id="time-svgrepo-com.svg_23" class="fil0" points="15525.46,0 15075.78,421.57 13709.35,421.57 13327.13,0 "/>
 </g>
</svg>
