<svg viewBox="0 0 512 512" xmlns="http://www.w3.org/2000/svg"><path d="m118.2 199.9-55.11 61.2-22.12-22.11c-9.375-9.375-24.56-9.375-33.94 0s-9.375 24.56 0 33.94l40 40c4.5 4.57 10.63 7.07 16.07 7.07.219 0 .406 0 .625-.016a24.006 24.006 0 0 0 17.22-7.922l72-80c8.875-9.859 8.062-25.03-1.78-33.91C142.2 189.3 127.1 190.1 118.2 199.9zm0-159.96L63.09 101.1 40.97 78.99c-9.375-9.375-24.56-9.375-33.94 0s-9.375 24.56 0 33.94l40 40c4.5 4.57 10.63 7.07 16.07 7.07.219 0 .406 0 .625-.016a24.006 24.006 0 0 0 17.22-7.922l72-80c8.875-9.859 8.062-25.03-1.78-33.91C142.2 29.31 127.1 30.09 118.2 39.94zM48 367.1c-26.51 0-48 21.49-48 48s21.49 48 48 48 48-21.49 48-48c0-25.6-21.49-48-48-48zM256 128h224c17.67 0 32-14.33 32-32s-14.33-32-32-32H256c-17.7 0-32 14.33-32 32s14.3 32 32 32zm224 96H256c-17.7 0-32 14.3-32 32s14.33 32 32 32h224c17.67 0 32-14.33 32-32s-14.3-32-32-32zm0 160H192c-17.67 0-32 14.33-32 32s14.33 32 32 32h288c17.67 0 32-14.33 32-32s-14.3-32-32-32z" fill="#3d48e0" class="fill-000000"></path></svg>